<svg xmlns="http://www.w3.org/2000/svg" viewBox="0 0 587.99 280"><title>ihb_logo</title><path d="M58.92,87.06a5.29,5.29,0,0,1,5.2-5.2h8.8a5.29,5.29,0,0,1,5.2,5.2v269.6a5.38,5.38,0,0,1-5.6,5.2h-8.4a5.29,5.29,0,0,1-5.2-5.2Z" transform="translate(-58.92 -81.86)"/><path d="M162.92,87.06a5.29,5.29,0,0,1,5.2-5.2h8.4a5,5,0,0,1,5.2,5.2v122.8h179.6V87.06a5.29,5.29,0,0,1,5.2-5.2h8.4a5,5,0,0,1,5.2,5.2v269.6a5,5,0,0,1-5.2,5.2h-8.4a5.29,5.29,0,0,1-5.2-5.2v-130H181.72v130a5,5,0,0,1-5.2,5.2h-8.4a5.29,5.29,0,0,1-5.2-5.2Z" transform="translate(-58.92 -81.86)"/><path d="M464.92,87.06a5.29,5.29,0,0,1,5.2-5.2h85.2c49.19,0,82.79,28.4,82.79,72.4,0,31.6-19.19,54.8-44,64.8,28.39,7.6,52.79,28.4,52.79,66.8,0,44.8-36,76-88,76h-88.8a5.29,5.29,0,0,1-5.2-5.2Zm95.6,258c38.79,0,66-24.8,66-59.6,0-35.6-30.39-56.8-68.39-56.8h-74.8v116.4Zm-2.4-133.6c37.59,0,59.59-23.6,59.59-56.4,0-34.8-24-55.6-62.39-55.6h-71.6v112Z" transform="translate(-58.92 -81.86)"/></svg>